<?xml version="1.0" standalone="no"?>
<!DOCTYPE svg PUBLIC "-//W3C//DTD SVG 20010904//EN"
 "http://www.w3.org/TR/2001/REC-SVG-20010904/DTD/svg10.dtd">
<svg version="1.0" xmlns="http://www.w3.org/2000/svg"
 width="1751.000000pt" height="1751.000000pt" viewBox="0 0 1751.000000 1751.000000"
 preserveAspectRatio="xMidYMid meet">
<metadata>
Created by potrace 1.11, written by Peter Selinger 2001-2013
</metadata>
<g transform="translate(0.000000,1751.000000) scale(0.100000,-0.100000)"
fill="#000000" stroke="none">
<path d="M8724 17444 c-5 -1 -97 -5 -204 -8 -202 -5 -329 -12 -415 -21 -27 -3
-77 -7 -110 -10 -33 -3 -80 -7 -105 -10 -25 -2 -72 -7 -105 -10 -529 -51
-1135 -171 -1557 -309 -110 -35 -370 -128 -423 -151 -16 -7 -77 -32 -135 -55
-58 -23 -123 -51 -145 -61 -22 -9 -87 -38 -143 -64 -171 -75 -654 -323 -672
-344 -3 -3 -30 -19 -60 -35 -30 -16 -62 -34 -70 -41 -8 -6 -55 -35 -105 -65
-87 -52 -258 -164 -380 -248 -33 -23 -109 -80 -170 -127 -60 -47 -123 -96
-139 -108 -16 -12 -38 -30 -50 -40 -11 -11 -41 -35 -65 -55 -66 -55 -121 -102
-171 -147 -130 -118 -162 -146 -234 -215 -465 -440 -949 -983 -1295 -1455 -41
-55 -91 -122 -111 -150 -63 -85 -214 -307 -334 -493 -64 -99 -264 -431 -311
-517 -21 -38 -60 -109 -86 -157 -263 -473 -536 -1124 -689 -1643 -142 -480
-215 -756 -280 -1070 -17 -82 -33 -166 -36 -185 -3 -19 -11 -71 -19 -115 -8
-44 -17 -104 -20 -134 -4 -30 -8 -61 -10 -70 -1 -9 -6 -45 -10 -81 -4 -36 -8
-72 -10 -80 -1 -8 -5 -40 -9 -70 -25 -226 -31 -387 -29 -775 2 -350 4 -429 18
-555 2 -25 7 -70 9 -100 11 -121 23 -226 33 -270 2 -14 6 -38 8 -55 2 -16 4
-30 5 -30 1 0 3 -20 5 -44 3 -25 7 -52 11 -60 3 -9 8 -29 10 -46 6 -63 40
-228 84 -410 40 -164 36 -147 60 -235 11 -41 22 -82 25 -91 9 -39 47 -166 55
-184 5 -11 18 -47 30 -80 11 -33 24 -69 29 -80 42 -97 61 -143 61 -149 0 -3
35 -79 79 -168 43 -90 80 -167 82 -173 7 -21 92 -181 110 -207 11 -14 19 -31
19 -37 0 -6 5 -11 10 -11 6 0 10 -7 10 -15 0 -8 5 -15 10 -15 6 0 10 -4 10
-10 0 -8 68 -121 88 -145 4 -5 19 -29 32 -52 13 -24 27 -43 32 -43 4 0 8 -4 8
-10 0 -11 43 -75 73 -110 13 -14 38 -47 56 -75 19 -27 41 -57 50 -66 9 -9 25
-28 35 -43 11 -15 29 -37 40 -50 12 -12 37 -43 57 -67 21 -24 48 -56 60 -70
13 -14 53 -58 89 -98 74 -84 66 -76 160 -161 39 -36 92 -84 117 -108 78 -71
175 -156 197 -171 12 -8 23 -18 26 -21 3 -4 34 -26 70 -50 70 -47 81 -56 111
-83 10 -9 23 -17 29 -17 5 0 10 -5 10 -11 0 -5 4 -8 9 -5 5 3 11 -1 15 -9 3
-8 12 -15 20 -15 8 0 16 -4 18 -8 2 -5 30 -26 63 -48 90 -58 98 -63 125 -76
14 -7 27 -15 30 -19 8 -10 55 -33 62 -31 5 1 8 -2 8 -6 0 -5 12 -14 27 -21 16
-7 73 -38 128 -69 55 -31 102 -57 105 -57 3 -1 52 -24 110 -52 58 -28 150 -70
205 -93 55 -23 118 -50 140 -60 22 -10 72 -30 110 -45 39 -15 73 -30 77 -34 3
-3 9 -26 13 -51 3 -25 10 -70 15 -100 5 -30 12 -73 15 -95 4 -22 8 -49 10 -60
12 -63 26 -132 34 -164 17 -63 32 -125 35 -141 5 -33 81 -268 103 -320 3 -8 7
-17 8 -20 8 -32 44 -128 66 -178 16 -34 29 -65 29 -68 0 -10 110 -237 148
-304 20 -36 35 -68 34 -72 -1 -5 3 -8 8 -8 6 0 10 -7 10 -15 0 -8 5 -15 10
-15 6 0 10 -6 10 -13 0 -8 9 -22 20 -32 11 -10 20 -23 20 -30 0 -6 8 -20 18
-31 9 -10 31 -37 47 -60 46 -63 124 -151 184 -208 29 -28 72 -68 94 -89 22
-21 56 -50 76 -65 20 -15 50 -39 66 -54 17 -16 35 -28 42 -28 6 0 13 -4 15 -9
4 -11 184 -129 253 -166 28 -14 64 -34 80 -44 52 -31 279 -129 417 -182 209
-79 720 -225 893 -255 17 -2 95 -18 175 -34 131 -26 208 -40 295 -54 17 -3 71
-12 120 -20 50 -8 108 -18 130 -21 23 -3 51 -7 62 -9 12 -3 48 -7 80 -11 32
-3 65 -8 73 -10 8 -3 44 -7 80 -10 36 -3 83 -7 105 -9 69 -8 170 -17 345 -31
30 -3 102 -7 160 -11 58 -3 128 -7 155 -9 385 -26 1181 -26 1620 0 139 8 273
17 320 20 28 2 82 7 120 10 39 3 99 8 135 11 36 4 79 8 95 9 52 4 155 16 176
20 11 2 47 7 80 10 33 4 68 8 77 10 9 1 42 6 72 10 56 7 75 11 120 20 14 3 45
7 70 10 25 3 52 7 60 10 15 4 40 9 114 20 21 4 48 9 60 11 11 3 33 7 48 9 15
2 44 8 65 14 21 5 52 12 68 14 48 8 249 53 405 92 364 90 721 218 990 355 79
40 124 64 130 70 3 3 21 14 40 24 54 30 253 168 271 188 9 10 19 18 23 18 17
0 282 259 326 318 14 19 30 39 35 45 6 7 26 34 45 62 19 27 39 54 43 60 40 51
205 361 247 465 12 30 28 69 35 85 69 162 179 506 201 629 3 16 7 33 10 38 3
5 7 20 10 33 8 51 24 141 29 165 3 14 8 48 11 75 4 28 8 57 10 65 1 8 3 32 3
53 1 23 8 43 19 53 15 12 300 138 337 148 16 5 84 36 185 84 52 25 97 46 100
47 5 1 28 13 120 65 30 17 67 35 83 41 15 6 27 15 27 20 0 5 6 9 13 9 6 0 40
18 75 40 34 22 64 40 66 40 8 0 123 72 144 90 12 11 24 20 27 20 9 0 359 258
395 291 19 17 78 70 130 118 125 113 280 268 359 361 35 41 87 102 115 134 28
32 57 68 65 80 8 12 18 23 21 26 3 3 22 27 41 54 18 27 44 61 57 74 12 14 22
28 22 32 0 4 11 20 25 36 14 16 31 41 38 57 6 15 15 27 19 27 5 0 8 4 8 9 0 4
22 42 50 82 27 41 50 80 50 87 0 6 4 12 9 12 5 0 14 14 21 30 7 17 17 30 22
30 5 0 6 4 3 10 -3 5 -3 10 2 10 12 0 83 124 83 144 0 8 3 16 8 18 4 1 17 23
28 48 12 25 34 72 50 105 15 33 33 63 39 67 5 4 6 8 2 8 -4 0 4 20 18 45 14
25 25 52 25 60 0 7 3 15 8 17 28 12 234 592 258 728 3 14 9 36 13 50 10 26 22
74 26 100 2 8 10 43 19 77 10 35 19 71 21 80 14 67 47 241 50 264 2 16 8 52
14 81 15 74 50 335 57 421 3 40 7 88 10 107 13 126 18 292 18 545 0 279 -10
619 -18 660 -2 11 -7 56 -11 100 -3 44 -8 94 -10 110 -3 17 -7 63 -9 103 -3
39 -7 75 -9 80 -3 4 -7 34 -11 67 -3 33 -8 71 -11 85 -3 14 -7 41 -9 60 -3 19
-7 46 -10 60 -8 35 -16 79 -22 120 -2 19 -22 115 -44 212 -22 97 -41 187 -44
200 -17 93 -179 647 -246 843 -86 251 -160 454 -185 510 -7 17 -24 59 -38 95
-25 67 -30 77 -113 265 -54 121 -282 552 -407 770 -460 801 -998 1557 -1487
2090 -92 100 -379 385 -479 475 -51 47 -99 90 -105 95 -6 6 -38 33 -71 60 -33
28 -66 55 -73 62 -7 7 -34 29 -60 50 -25 21 -60 50 -77 64 -16 15 -82 67 -145
115 -508 392 -991 693 -1538 960 -106 52 -194 94 -196 94 -3 0 -33 13 -68 29
-35 16 -92 41 -128 56 -36 15 -83 35 -105 45 -196 86 -621 230 -882 300 -320
86 -789 174 -1148 215 -27 3 -61 8 -75 11 -13 3 -47 7 -75 10 -48 3 -87 7
-200 19 -102 10 -175 15 -355 20 -102 4 -210 7 -241 9 -30 1 -59 1 -65 0z"/>
</g>
</svg>
